{"title":"Pirates.of.the.Carribbean.-.The.Curse.of.the.Black.Pearl.[2003].","uid":6442352,"size":2142226432,"categoryP":"video","categoryS":"movies","magnet":"?xt=urn:btih:422e9cc630cbb1acb5a6c6f54abca6c2762a91c4&amp;dn=Pirates.of.the.Carribbean.-.The.Curse.of.the.Black.Pearl.%5B2003%5D.&amp;tr=udp%3A%2F%2Ftracker.openbittorrent.com%3A80&amp;tr=udp%3A%2F%2Fopen.demonii.com%3A1337&amp;tr=udp%3A%2F%2Ftracker.coppersurfer.tk%3A6969&amp;tr=udp%3A%2F%2Fexodus.desync.com%3A6969","seeders":0,"leechers":1,"uploader":"Jon.Pson","files":1,"time":1307011726,"description":"Blacksmith Will Turner teams up with eccentric pirate \\&quot;Captain\\&quot; Jack Sparrow to save his love, the governor\\'s daughter, from Jack\\'s former pirate allies, who are now undead. \n\n\nGeneral\nComplete name                    : H:\\\\Movies\\\\Pirates.of.the.Carribbean.-.The.Curse.of.the.Black.Pearl.[2003].DvdRip.XviD-KnÃƒÂ£\\\\Pirates.of.the.Carribbean.-.The.Curse.of.the.Black.Pearl.[2003].DvdRip.XviD-KnÃƒÂ£.avi\nFormat                           : AVI\nFormat/Info                      : Audio Video Interleave\nFormat profile                   : OpenDML\nFile size                        : 2.00 GiB\nDuration                         : 2h 17mn\nOverall bit rate                 : 2 080 Kbps\nWriting application              : VirtualDubMod 1.5.4.1 (build 2178/release)\nWriting library                  : VirtualDubMod build 2178/release\n\nVideo\nID                               : 0\nFormat                           : MPEG-4 Visual\nFormat profile                   : Advanced Simple@L5\nFormat settings, BVOP            : Yes\nFormat settings, QPel            : No\nFormat settings, GMC             : No warppoints\nFormat settings, Matrix          : Custom\nCodec ID                         : XVID\nCodec ID/Hint                    : XviD\nDuration                         : 2h 17mn\nBit rate                         : 1 623 Kbps\nWidth                            : 720 pixels\nHeight                           : 304 pixels\nDisplay aspect ratio             : 2.35:1\nFrame rate                       : 25.000 fps\nColor space                      : YUV\nChroma subsampling               : 4:2:0\nBit depth                        : 8 bits\nScan type                        : Progressive\nBits/(Pixel*Frame)               : 0.297\nStream size                      : 1.56 GiB (78%)\nWriting library                  : XviD 1.2.1 (UTC 2008-12-04)\n\nAudio\nID                               : 1\nFormat                           : AC-3\nFormat/Info                      : Audio Coding 3\nMode extension                   : CM (complete main)\nCodec ID                         : 2000\nDuration                         : 2h 17mn\nBit rate mode                    : Constant\nBit rate                         : 448 Kbps\nChannel(s)                       : 6 channels\nChannel positions                : Front: L C R, Side: L R, LFE\nSampling rate                    : 48.0 KHz\nBit depth                        : 16 bits\nStream size                      : 440 MiB (22%)\nAlignment                        : Aligned on interleaves\nInterleave, duration             : 96 ms (2.40 video frames)\nInterleave, preload duration     : 96 ms\nLanguage                         : English\n\n","torrent":{"xt":"urn:btih:422e9cc630cbb1acb5a6c6f54abca6c2762a91c4","amp;dn":"Pirates.of.the.Carribbean.-.The.Curse.of.the.Black.Pearl.%5B2003%5D.","amp;tr":["udp%3A%2F%2Ftracker.openbittorrent.com%3A80","udp%3A%2F%2Fopen.demonii.com%3A1337","udp%3A%2F%2Ftracker.coppersurfer.tk%3A6969","udp%3A%2F%2Fexodus.desync.com%3A6969"],"infoHash":"422e9cc630cbb1acb5a6c6f54abca6c2762a91c4","infoHashBuffer":{"type":"Buffer","data":[66,46,156,198,48,203,177,172,181,166,198,245,74,188,166,194,118,42,145,196]},"announce":[],"urlList":[]}}